<svg width="160" height="160" viewBox="0 0 160 160" fill="none" xmlns="http://www.w3.org/2000/svg">
<circle cx="12" cy="12" r="12" fill="white"/>
<circle cx="12" cy="46" r="12" fill="white"/>
<circle cx="12" cy="80" r="12" fill="white"/>
<circle cx="12" cy="114" r="12" fill="white"/>
<circle cx="12" cy="148" r="12" fill="white"/>
<circle cx="46" cy="12" r="12" fill="white"/>
<circle cx="46" cy="46" r="12" fill="white"/>
<circle cx="46" cy="80" r="12" fill="white"/>
<circle cx="46" cy="114" r="12" fill="white"/>
<circle cx="46" cy="148" r="12" fill="white"/>
<circle cx="80" cy="12" r="12" fill="white"/>
<circle cx="80" cy="46" r="12" fill="white"/>
<circle cx="80" cy="80" r="12" fill="white"/>
<circle cx="80" cy="114" r="12" fill="white"/>
<circle cx="80" cy="148" r="12" fill="white"/>
<circle cx="114" cy="12" r="12" fill="white"/>
<circle cx="114" cy="46" r="12" fill="white"/>
<circle cx="114" cy="80" r="12" fill="white"/>
<circle cx="114" cy="114" r="12" fill="white"/>
<circle cx="114" cy="148" r="12" fill="white"/>
<circle cx="148" cy="12" r="12" fill="white"/>
<circle cx="148" cy="46" r="12" fill="white"/>
<circle cx="148" cy="80" r="12" fill="white"/>
<circle cx="148" cy="114" r="12" fill="white"/>
<circle cx="148" cy="148" r="12" fill="white"/>
</svg>
