<svg width="15" height="13" viewBox="0 0 15 13" fill="none" xmlns="http://www.w3.org/2000/svg">
<path opacity="0.2" fill-rule="evenodd" clip-rule="evenodd" d="M8.09998 2.90012C9.62098 0.179419 14.85 1.12892 14.85 5.06012C14.85 7.68632 12.6 10.0842 8.09998 12.2538C3.59998 10.0848 1.34998 7.68692 1.34998 5.06012C1.34998 1.12892 6.57898 0.179419 8.09998 2.90012Z" fill="white"/>
<path fill-rule="evenodd" clip-rule="evenodd" d="M3.2562 1.00651C1.9665 1.31971 0.9 2.31331 0.9 4.04671C0.9 6.35431 2.8521 8.61241 7.2 10.7499C11.5479 8.61241 13.5 6.35431 13.5 4.04671C13.5 2.31421 12.4335 1.31971 11.1438 1.00651C9.8199 0.684311 8.334 1.09921 7.5627 2.14951C7.5209 2.20644 7.46628 2.25272 7.40327 2.28462C7.34026 2.31653 7.27063 2.33315 7.2 2.33315C7.12937 2.33315 7.05974 2.31653 6.99673 2.28462C6.93372 2.25272 6.8791 2.20644 6.8373 2.14951C6.066 1.09921 4.5801 0.684311 3.2562 1.00651ZM7.2 1.19551C6.129 0.121811 4.4712 -0.215689 3.0438 0.130811C1.4085 0.529511 0 1.84171 0 4.04671C0 6.96271 2.4894 9.47551 7.0047 11.6553C7.06562 11.6847 7.13238 11.6999 7.2 11.6999C7.26762 11.6999 7.33438 11.6847 7.3953 11.6553C11.9106 9.47551 14.4 6.96361 14.4 4.04671C14.4 1.84171 12.9915 0.529511 11.3562 0.131711C9.9288 -0.214789 8.2719 0.123611 7.2 1.19551Z" fill="white"/>
</svg>
