<svg width="15" height="15" viewBox="0 0 15 15" fill="none" xmlns="http://www.w3.org/2000/svg">
<path fill-rule="evenodd" clip-rule="evenodd" d="M7.625 12.875C8.31444 12.875 8.99713 12.7392 9.63409 12.4754C10.271 12.2115 10.8498 11.8248 11.3373 11.3373C11.8248 10.8498 12.2115 10.271 12.4754 9.63409C12.7392 8.99713 12.875 8.31444 12.875 7.625C12.875 6.93556 12.7392 6.25287 12.4754 5.61591C12.2115 4.97895 11.8248 4.4002 11.3373 3.91269C10.8498 3.42518 10.271 3.03847 9.63409 2.77463C8.99713 2.5108 8.31444 2.375 7.625 2.375C6.23261 2.375 4.89726 2.92812 3.91269 3.91269C2.92812 4.89726 2.375 6.23261 2.375 7.625C2.375 9.01739 2.92812 10.3527 3.91269 11.3373C4.89726 12.3219 6.23261 12.875 7.625 12.875ZM6.19025 4.16C6.64515 3.97174 7.13268 3.8749 7.625 3.875C7.72446 3.875 7.81984 3.83549 7.89017 3.76516C7.96049 3.69484 8 3.59946 8 3.5C8 3.40054 7.96049 3.30516 7.89017 3.23484C7.81984 3.16451 7.72446 3.125 7.625 3.125C6.43153 3.125 5.28693 3.59911 4.44302 4.44302C3.59911 5.28693 3.125 6.43153 3.125 7.625C3.125 7.72446 3.16451 7.81984 3.23484 7.89017C3.30516 7.96049 3.40054 8 3.5 8C3.59946 8 3.69484 7.96049 3.76516 7.89017C3.83549 7.81984 3.875 7.72446 3.875 7.625C3.87494 6.88321 4.09487 6.15806 4.50699 5.54128C4.91911 4.92451 5.5049 4.44381 6.19025 4.16Z" fill="white" fill-opacity="0.25"/>
<path d="M14 14L11.375 11.375" stroke="white" stroke-linecap="round"/>
<path d="M6.875 13.25C10.3958 13.25 13.25 10.3958 13.25 6.875C13.25 3.35418 10.3958 0.5 6.875 0.5C3.35418 0.5 0.5 3.35418 0.5 6.875C0.5 10.3958 3.35418 13.25 6.875 13.25Z" stroke="white"/>
</svg>
