<svg width="24" height="24" viewBox="0 0 24 24" fill="none" xmlns="http://www.w3.org/2000/svg">
<path d="M8.99998 2.25C8.99998 2.05109 9.079 1.86032 9.21965 1.71967C9.36031 1.57902 9.55107 1.5 9.74998 1.5C9.9489 1.5 10.1397 1.57902 10.2803 1.71967C10.421 1.86032 10.5 2.05109 10.5 2.25V20.6906C10.4997 20.8388 10.4556 20.9835 10.3732 21.1066C10.2908 21.2297 10.1737 21.3257 10.0368 21.3823C9.89994 21.439 9.74934 21.4538 9.60402 21.425C9.4587 21.3962 9.32518 21.3249 9.2203 21.2203L2.24998 14.25C2.18018 14.1803 2.1248 14.0976 2.08702 14.0065C2.04923 13.9154 2.02979 13.8178 2.02979 13.7191C2.02979 13.6205 2.04923 13.5229 2.08702 13.4318C2.1248 13.3407 2.18018 13.2579 2.24998 13.1883H2.25467C2.39517 13.0487 2.58516 12.9704 2.78319 12.9704C2.98121 12.9704 3.1712 13.0487 3.3117 13.1883L9.00233 18.8836L8.99998 2.25ZM13.5 3.30937C13.5007 3.16143 13.5452 3.01699 13.6278 2.89425C13.7104 2.7715 13.8274 2.67594 13.9642 2.61956C14.101 2.56319 14.2514 2.54854 14.3965 2.57745C14.5416 2.60636 14.6749 2.67754 14.7797 2.78203L21.75 9.75C21.8198 9.81966 21.8752 9.90241 21.9129 9.9935C21.9507 10.0846 21.9702 10.1822 21.9702 10.2809C21.9702 10.3795 21.9507 10.4771 21.9129 10.5682C21.8752 10.6593 21.8198 10.7421 21.75 10.8117H21.7453C21.6048 10.9513 21.4148 11.0296 21.2168 11.0296C21.0188 11.0296 20.8288 10.9513 20.6883 10.8117L15 5.12109V21.75C15 21.9489 14.921 22.1397 14.7803 22.2803C14.6397 22.421 14.4489 22.5 14.25 22.5C14.0511 22.5 13.8603 22.421 13.7197 22.2803C13.579 22.1397 13.5 21.9489 13.5 21.75V3.30937Z" fill="#8247FF"/>
</svg>
